<svg width="22" height="10" viewBox="0 0 22 10" fill="none" xmlns="http://www.w3.org/2000/svg">
<path opacity="0.4" d="M0.5 4C0.5 3.29169 0.500389 2.79052 0.5324 2.39872C0.563934 2.01276 0.623645 1.77717 0.717987 1.59202C0.909734 1.21569 1.21569 0.909734 1.59202 0.717987C1.77717 0.623645 2.01276 0.563934 2.39872 0.5324C2.79052 0.500389 3.29168 0.5 4 0.5H15.5556C16.2639 0.5 16.765 0.500389 17.1568 0.5324C17.5428 0.563934 17.7784 0.623645 17.9635 0.717987C18.3399 0.909734 18.6458 1.2157 18.8376 1.59202C18.9319 1.77717 18.9916 2.01276 19.0232 2.39872C19.0552 2.79052 19.0556 3.29168 19.0556 4V6.63881C19.0556 7.25714 19.053 7.49163 19.0154 7.67656C18.8554 8.46299 18.2408 9.0776 17.4543 9.23762C17.2694 9.27525 17.0349 9.27778 16.4166 9.27778H4C3.29168 9.27778 2.79052 9.27739 2.39872 9.24538C2.01276 9.21384 1.77717 9.15413 1.59202 9.05979C1.2157 8.86804 0.909734 8.56208 0.717987 8.18576C0.623645 8.0006 0.563934 7.76502 0.5324 7.37906C0.500389 6.98726 0.5 6.48609 0.5 5.77778V4Z" stroke="black"/>
<path opacity="0.4" fill-rule="evenodd" clip-rule="evenodd" d="M20.3704 6.51851C21.3075 6.33172 22 5.67292 22 4.88888C22 4.10483 21.3075 3.44604 20.3704 3.25925V6.51851Z" fill="black"/>
<path fill-rule="evenodd" clip-rule="evenodd" d="M1.62962 2.12964C1.62962 1.8535 1.85348 1.62964 2.12962 1.62964H17.4259C17.7021 1.62964 17.9259 1.8535 17.9259 2.12964V7.64816C17.9259 7.9243 17.7021 8.14816 17.4259 8.14816H2.12962C1.85348 8.14816 1.62962 7.9243 1.62962 7.64816V2.12964Z" fill="black"/>
</svg>
