<svg width="14" height="9" viewBox="0 0 14 9" fill="none" xmlns="http://www.w3.org/2000/svg">
<path fill-rule="evenodd" clip-rule="evenodd" d="M12.4935 0C11.9412 0 11.4935 0.447715 11.4935 1V7.75C11.4935 8.30229 11.9412 8.75 12.4935 8.75H12.9796C13.5319 8.75 13.9796 8.30229 13.9796 7.75V1C13.9796 0.447715 13.5319 0 12.9796 0H12.4935ZM7.76438 2.75C7.76438 2.19772 8.21209 1.75 8.76438 1.75H9.25046C9.80275 1.75 10.2505 2.19772 10.2505 2.75V7.75C10.2505 8.30229 9.80275 8.75 9.25046 8.75H8.76438C8.21209 8.75 7.76438 8.30228 7.76438 7.75V2.75ZM5.03525 3.5C4.48296 3.5 4.03525 3.94772 4.03525 4.5V7.75C4.03525 8.30228 4.48296 8.75 5.03525 8.75H5.52133C6.07362 8.75 6.52133 8.30229 6.52133 7.75V4.5C6.52133 3.94772 6.07362 3.5 5.52133 3.5H5.03525ZM1.30612 4.8125C0.753837 4.8125 0.306122 5.26022 0.306122 5.8125V7.75C0.306122 8.30228 0.753838 8.75 1.30612 8.75H1.79221C2.34449 8.75 2.79221 8.30229 2.79221 7.75V5.8125C2.79221 5.26022 2.34449 4.8125 1.79221 4.8125H1.30612Z" fill="black"/>
</svg>
