<svg width="13" height="9" viewBox="0 0 13 9" fill="none" xmlns="http://www.w3.org/2000/svg">
<path fill-rule="evenodd" clip-rule="evenodd" d="M0.886292 2.42494C2.42007 0.920772 4.48067 0 6.74635 0C9.01203 0 11.0726 0.920772 12.6064 2.42494L11.4498 3.63776C10.2125 2.44337 8.56066 1.714 6.74635 1.714C4.93203 1.714 3.28017 2.44337 2.04287 3.63776L0.886292 2.42494H0.886292ZM2.9106 4.5477C3.92529 3.58549 5.27056 2.9995 6.74635 2.9995C8.22214 2.9995 9.5674 3.58549 10.5821 4.5477L9.42427 5.76184C8.7071 5.10879 7.77075 4.7135 6.74635 4.7135C5.72195 4.7135 4.7856 5.10879 4.06843 5.76184L2.9106 4.5477ZM4.93835 6.67407C5.43111 6.25209 6.06054 5.999 6.74635 5.999C7.43216 5.999 8.06159 6.25209 8.55435 6.67407L6.74635 8.57L4.93835 6.67407Z" fill="black"/>
</svg>
